<?xml version="1.0" standalone="no"?>
<!DOCTYPE svg PUBLIC "-//W3C//DTD SVG 20010904//EN"
 "http://www.w3.org/TR/2001/REC-SVG-20010904/DTD/svg10.dtd">
<svg version="1.0" xmlns="http://www.w3.org/2000/svg"
 width="223.000000pt" height="223.000000pt" viewBox="0 0 223.000000 223.000000"
 preserveAspectRatio="xMidYMid meet">
<metadata>
Created by potrace 1.11, written by Peter Selinger 2001-2013
</metadata>
<g transform="translate(0.000000,223.000000) scale(0.100000,-0.100000)"
fill="#000000" stroke="none">
<path d="M1320 2218 c-231 -24 -434 -91 -637 -210 -293 -172 -543 -451 -599
-669 -48 -187 55 -477 266 -744 79 -101 123 -143 236 -227 223 -165 434 -271
636 -317 146 -34 228 -44 363 -44 185 0 278 28 381 115 110 92 174 217 176
343 2 106 -8 130 -97 229 -141 157 -185 300 -150 483 15 77 55 187 90 243 33
54 56 118 70 195 14 84 5 127 -57 249 -100 200 -215 321 -324 340 -13 3 -33 8
-44 11 -31 10 -227 12 -310 3z m236 -519 c22 -48 29 -76 29 -123 0 -63 -2 -68
-66 -226 -55 -136 -72 -211 -72 -315 -1 -175 54 -316 190 -487 45 -56 49 -66
30 -62 -12 2 -44 6 -70 9 -320 32 -802 237 -977 415 -135 138 -125 248 37 413
54 55 238 198 308 240 109 65 291 139 439 177 115 30 118 29 152 -41z"/>
</g>
</svg>
